/* XPM */
static char *netscape2[] = {
/* width height num_colors chars_per_pixel */
"    48    48      244            2",
/* colors */
".. c #000000",
".# c #000821",
".a c #000839",
".b c #000842",
".c c #001029",
".d c #001042",
".e c #001852",
".f c #00204a",
".g c #002052",
".h c #00205a",
".i c #002063",
".j c #00284a",
".k c #00285a",
".l c #00286b",
".m c #00305a",
".n c #00306b",
".o c #00416b",
".p c #004173",
".q c #004184",
".r c #00418c",
".s c #00496b",
".t c #004973",
".u c #004984",
".v c #005173",
".w c #00517b",
".x c #005184",
".y c #00598c",
".z c #006194",
".A c #00619c",
".B c #0061a5",
".C c #006984",
".D c #00698c",
".E c #006994",
".F c #00699c",
".G c #0079a5",
".H c #0079ad",
".I c #0086a5",
".J c #080810",
".K c #081008",
".L c #081039",
".M c #081042",
".N c #081839",
".O c #081842",
".P c #082039",
".Q c #082852",
".R c #082863",
".S c #083863",
".T c #084973",
".U c #084984",
".V c #08597b",
".W c #085994",
".X c #08698c",
".Y c #087194",
".Z c #100029",
".0 c #100808",
".1 c #101029",
".2 c #101039",
".3 c #101831",
".4 c #101842",
".5 c #101852",
".6 c #102042",
".7 c #10284a",
".8 c #10285a",
".9 c #103052",
"#. c #10385a",
"## c #10416b",
"#a c #104173",
"#b c #10496b",
"#c c #10497b",
"#d c #10517b",
"#e c #105984",
"#f c #105994",
"#g c #10618c",
"#h c #10699c",
"#i c #10798c",
"#j c #181818",
"#k c #181842",
"#l c #18386b",
"#m c #18416b",
"#n c #18598c",
"#o c #18618c",
"#p c #186984",
"#q c #186994",
"#r c #18719c",
"#s c #18869c",
"#t c #21516b",
"#u c #216994",
"#v c #21799c",
"#w c #292829",
"#x c #293052",
"#y c #293852",
"#z c #29385a",
"#A c #294973",
"#B c #29597b",
"#C c #29698c",
"#D c #29719c",
"#E c #2986a5",
"#F c #31285a",
"#G c #313031",
"#H c #313039",
"#I c #313831",
"#J c #314984",
"#K c #31515a",
"#L c #316994",
"#M c #317184",
"#N c #3179a5",
"#O c #318ea5",
"#P c #393839",
"#Q c #39384a",
"#R c #39386b",
"#S c #394163",
"#T c #396184",
"#U c #39699c",
"#V c #39869c",
"#W c #424142",
"#X c #42495a",
"#Y c #42496b",
"#Z c #42597b",
"#0 c #426163",
"#1 c #42718c",
"#2 c #427194",
"#3 c #42799c",
"#4 c #4296a5",
"#5 c #4296ad",
"#6 c #4a415a",
"#7 c #4a4942",
"#8 c #4a5963",
"#9 c #4a616b",
"a. c #4a6173",
"a# c #4a798c",
"aa c #4a8694",
"ab c #4a86a5",
"ac c #4a8ea5",
"ad c #525152",
"ae c #52597b",
"af c #525984",
"ag c #526194",
"ah c #52697b",
"ai c #52718c",
"aj c #52869c",
"ak c #5286a5",
"al c #5296a5",
"am c #5296b5",
"an c #5a6184",
"ao c #5a6994",
"ap c #5a7994",
"aq c #5a79a5",
"ar c #5a8e9c",
"as c #5a96a5",
"at c #5a96ad",
"au c #5a9eb5",
"av c #636163",
"aw c #637184",
"ax c #6396ad",
"ay c #6b8684",
"az c #6b8694",
"aA c #6b96b5",
"aB c #6ba6b5",
"aC c #73716b",
"aD c #737184",
"aE c #73799c",
"aF c #738ea5",
"aG c #7396ad",
"aH c #7b7194",
"aI c #7b797b",
"aJ c #7b798c",
"aK c #7b8ead",
"aL c #7b9694",
"aM c #7b96a5",
"aN c #7b9ead",
"aO c #7baebd",
"aP c #7baec6",
"aQ c #8486ad",
"aR c #848e9c",
"aS c #84a6ad",
"aT c #8c7984",
"aU c #8c8e8c",
"aV c #8c9ea5",
"aW c #8cbebd",
"aX c #948e94",
"aY c #94b6bd",
"aZ c #9c9e9c",
"a0 c #9ca6a5",
"a1 c #9caec6",
"a2 c #9cb6bd",
"a3 c #9cc7d6",
"a4 c #a5a6a5",
"a5 c #a5a6ad",
"a6 c #a5aead",
"a7 c #a5aeb5",
"a8 c #a5bec6",
"a9 c #a5c7c6",
"b. c #adaead",
"b# c #adb6bd",
"ba c #adb6ce",
"bb c #adc7ce",
"bc c #b5a6b5",
"bd c #b5b6b5",
"be c #b5c7d6",
"bf c #b5d7de",
"bg c #bdbebd",
"bh c #bdbec6",
"bi c #bdc7bd",
"bj c #bdc7c6",
"bk c #c6c7c6",
"bl c #c6c7d6",
"bm c #c6d7d6",
"bn c #ceb6b5",
"bo c #cec7ce",
"bp c #cecfce",
"bq c #cecfd6",
"br c #ced7e7",
"bs c #cedfd6",
"bt c #cedfe7",
"bu c #d6bebd",
"bv c #d6cfd6",
"bw c #d6d7c6",
"bx c #d6d7d6",
"by c #d6dfd6",
"bz c #d6dfde",
"bA c #ded7e7",
"bB c #dedfde",
"bC c #dedfe7",
"bD c #dee7d6",
"bE c #dee7e7",
"bF c #e7d7d6",
"bG c #e7dfde",
"bH c #e7e7e7",
"bI c #e7efe7",
"bJ c #efd7ef",
"bK c #efefde",
"bL c #efefef",
"bM c #efeff7",
"bN c #eff7e7",
"bO c #eff7f7",
"bP c #eff7ff",
"bQ c #f7dfe7",
"bR c #f7e7e7",
"bS c #f7efe7",
"bT c #f7efef",
"bU c #f7eff7",
"bV c #f7f7f7",
"bW c #f7f7ff",
"bX c #ffffff",
/* pixels */
"..............................................................................................#8",
"..a.a7bFbNbCbGbi#X.2.P#9bHbEbvbwbiaT#y.c.M.3.3.3.2.3.P.2#K#ZbLbXbObWbXbVbXbVbWbWbWbTbVbUbVbVbVbV",
"..bKbObTbTbVbSbw#Y.N.ZaebVbTbVbQbEbxa7#F.L#k.P.1.1.3.j.O#k.cavbWbWbVbVbXbVbXbXbVbTbWbVbWbWbVbXbX",
"..bgbXbVbWbVbLbp#S.f.a#9bTbXbXbWbObLaD.3.L.Q#k.7#k.N.P.P.3.N.#a7bXbVbWbVbXbVbVbVbXbWbWbVbVbWbWbV",
"..#tbLbXbXbVbObj#K.O.3a.bVbWbTbVbVbg.L.3.L.d#k.4.3#k.P.9.f.3.3#QbObXbVbWbXbUbVbPbTbVbWbWbWbXbXbV",
"...m#AbabXbXbNbn.6.O.c#YbUbXbWbTa5#y.O.O.j#0aJ#k.M.2.3.O.P.7.4.#a7bXbVbVbXbXbVbVbWbXbVbVbTbMbVbX",
"...h.b.MaRbVbIbp#..d.3#YbUbXbB#Z.P.f.O.6aybmbk#6.L.3.2.L.O.M.2.##KbObVbVbXbVbXbTbXbVbXbWbVbXbWbX",
"..##.j.R.daibHbp#Z.h.fafbTbz#Y.d.f.f.faXbTbLbDa6.7.d.4.O.O.2.f.2.jbkbXbVbXbVbVbVbXbWbVbVbVbVbVbX",
"..az.i#.##.iaEbw#A.m.ia#bJaf.e.8.Q.OaVbXbXbVbUbGaD.f.O.9.Q.P.O.P.#aZbXbXbVbXbXbWbObVbWbXbVbVbVbV",
"..bga..k.V.S#m#T.R.Q.s#a#Y.R#m.i.maEbHbWbVbVbWbGa0.5.7#..m.m.Q.3.cawbXbVbVbWbWbXbWbVbVbVbVbVbVbV",
"..bHbkai#C.V.n.l.n.S.S.m.Q.m.S#TaQbRbVbVbXbVbVbHbk#z.f.j.j.j#c#..N#xbMbVbVbXbWbVbXbXbXbXbXbVbWbW",
"..blbrbwaL.v.U.S.t#c.T.m.m.Q#AbkbSbEbybHbLbUbVbGbpan.e.9.k.O.R.S.g.RbmbLbTbXbXbObEbBbebhbpbVbVbV",
"...X#p#T#J.w.x.U.U.U.n.o###..oa#ag###.#a#d#Tap#l.9#m.R.Q###b.d.j#..R.6#y#FaHaKah.7#k.M.3.c#ybBbX",
"...x.q.p.p#e.W.X.V#c.n.T.n#c.x#p.p.p.n.T.y.n.n##.g.S.T.T.n.R.Q.Q.O.i.k#b.k.d.f.f.Q.Q.Q.4.M.aaRbX",
"...w.r.x.U.y#g.X.Y.y.o.S.T.y#p#q.u.C.x.p.x.p.o.m.m.p.q#o#b.m.O.Q.T.o#..R.f#..S#t.m.m.f.d.a.da7bX",
"..ajaqaGaj.Y.W.z#h.y.Y.X.X.y#vaYaMaa#La#apazazaiaw#A.p#c.T.s.R#..n.R#Zawawa0a7aVawae#S#R#YaMbLbW",
"..bDbKbuap.F.G.y.q.U.v.y.W.C#pbpbKbFbvbybIbTbSbFbkao.n.l.T.o.s.w.u#dbpbLbHbHbHbKbHbvbpblbHbXbXbW",
"..bTbt#E#p.y.A.y.y.U.y#e.y.C#c#eaxbLbVbPbVbWbVbMbj#o.V.T.T#c#c.V.u#VbLbVbMbTbVbVbTbTbTbObMbTbVbW",
"..bz#r.z.X.x#Cap.Y.D.y#q#2#e.C.x.xambLbXbVbVbWbLa8.U#c.V.V.U.n.o.xaAbVbXbWbVbXbVbTbVbXbXbVbWbVbV",
"..#o.z.y.x#fa2bg#N.z.xaabkaN.F.F.E.zaxbXbVbVbUbGaa.p.U.w.t.V.T.w.wa8bVbXbVbWbXbVbVbXbVbVbVbVbVbX",
"...y#i.C.ya1bJbk#v.X.F#4bBbvaq.w.D.E.xaAbXbXbLaY.x.C.y#e.u.t.V.w.VbsbVbVbXbXbXbUbXbXbVbXbTbObVbX",
"...Y.yakbabSbQbi#q.Y.FacbVbGbjaz#u.C.z.yajbebN#V.y.X.Y.X.x.X#g.wakbVbXbVbVbWbUbUbVbVbTbVbVbXbVbW",
"...AasbDbTbVbNbj#f.C.yabbLbLbHbobc#u.q.U.x#CaA.y.y.Y#q.C.w.U#g.UbqbWbPbVbVbWbXbVbVbVbWbWbVbXbVbW",
"..atbFbVbWbWbLba#D.x.A#5bTbWbMbIbsa7#C.u.y.y.y.V.U.z.C.U.y.v.waFbTbVbXbWbVbVbUbWbVbXbVbWbXbTbVbX",
"..bHbUbXbWbXbSbk#2.x.yambXbXbObWbLbzb##M.u.W.Y.y.r#d.U.U.V#e.CbzbVbVbVbVbXbWbXbWbObVbWbPbVbXbXbV",
"..btbXbXbVbTbLbo#N.F.zalbVbXbVbXbVbSaS#e.U#e.D.Y.W.A.W.X.A.Wa1bUbXbXbVbXbXbVbUbVbWbWbVbXbTbXbTbV",
"..#sa3bEbVbXbTbw#D.z.xacbVbXbXbLbzaP#g.y.F.G.C.W#g.A.Y.F.wakbTbVbVbTbXbVbVbVbObVbXbXbVbXbVbUbWbX",
"...B.D.X#DaPa9a2#f.z.z#Ubfa9aA#r.G.y.y.y#h.B#f.w#c.V.Y.u#TbybTbVbWbWbXbVbVbVbXbVbVbVbVbVbVbVbVbW",
"...Y.y.y.X.y.x#d.W.A.A.Y.F.U.x.H.W.y.W#f.Y.Y.y#c.x.V.z.y#1bNbWbXbVbXbWbObVbXbXbVbXbVbXbVbVbVbXbV",
"...F.Y.W.y#c.D.y.X.F#s.G.Y.G.X.Y.X.W.C.X.B.F#f.V.y.w#e.C.w#3bXbXbVbVbVbVbVbVbObXbVbVbXbVbXbVbVbX",
"..#s.E.X.F.Y.Y.X.Y.G.G.G.H.G.X.F.W.W.U.W.Y.W#f.x.x#T.C.x.C.Ua1bVbXbVbXbXbVbXbVbWbXbVbUbObVbVbVbV",
"...Y.C.W.W.G.I.I.G#h.I.I.G.W#e#c.W.Y.Y.A#g.y.t#naFbdaM#q.B.E.xaAbTbXbVbVbXbTbVbXbVbXbVbVbTbXbVbV",
"...G#e.X#g.C#g.F#h.W.Y.Y.X#e.y.y.y.C.y.W.E#e#2bkbGbGbwa7#4.F.A.E#DbfbXbVbXbVbXbTbVbVbXbVbWbVbXbX",
"...z.A.z.z#g.y.F#h.Y.A#e.y#f.U.U.y#e.p.WasbdbIbVbVbVbMbxbkar.u.w.w.UaAbXbXbTbVbVbXbTbVbXbXbVbXbT",
"..#3#L#h#h.y#e.Y.W.Y#f#g.z.w.y#e#d#uata7bDbNbTbXbVbUbVbVbAbc#B.q.V.w.waSbTbXbWbVbVbXbTbTbVbVbVbX",
"..bFbkbhbgaNaFau#5#N#r#raaaraAbibobybSbTbObVbXbTbXbVbVbWbObAb##o.x.y.r.ubebXbXbVbXbWbTbXbXbVbXbV",
"..bUbTbGbBbDbxbkaYaB#NatbvbtbQbHbLbLbLbVbWbTbVbVbWbTbVbObVbHbwa0#e.x.x#cbebXbTbTbVbVbXbXbVbObXbV",
"..bTbLb##IaIbGbx#GaVaBaObHbLbLbHbgb.bLbLbTbVbTbMbTbMbLbLbVbLbHbwbcaNaAb#bLbLbVbTbObLbLbLbVbWbVbV",
"..bVbLb....0bxbB..aZbabbbHbHbHbG#GaCbGbHbHbHbHbIbHbHbHbHbHbGbHbGbBbCbGbHbGbHbHbHbHbHbCbNbObXbVbX",
"..bTbLb...#PadbB..a0bj#I..#jbk#H....#Hbd#j..aIbHaC.K..bd#8...KaCbBaC#w#G..#HbBbx#I..#wbkbLbLbXbV",
"..bWbLb...a4..bk..a4ad#WbH#7adbH#IaCbHaC#jbBbpaZ.KbdbGbpa4bGaI..bBaC.Kbgbp.0aUad#WbH#WadbHbObVbU",
"..bVbLb...bBad#I..a4#I......#HbH#PaCbCbv#H.0aUaC#PbHbCbG#W......bCaC#HbBbE#IaC#P......#PbLbObVbV",
"..bVbLb...bBbk....a4ad#WbvbwbdbH#HavbBbibHad#PaU.KbdbBaZ..bkaI..bBaC.0bkbd.JaUad#7bpbxbdbLbVbTbX",
"..bVbLb...bBbBad..a0bj#P...KaUbHaZ..#IaU...KaZbHav.0..a4#w..ad..bCaC#j#j..#7bHbx#P...KaUbLbObXbV",
"..bVbUbHbHbHbGbpbba8aWa3bGbHbLbHbHbHbHbHbHbHbHbHbHbIbHbHbHbHbHbHbHaC#PbHbHbHbLbHbHbHbLbHbNbVbXbV",
"..bVbVbUbTbLbKbh#O#N#NaubMbLbUbTbObVbMbMbLbTbMbUbLbLbTbLbTbMbVbLbHaC#PbHbLbUbLbUbObLbSbUbVbPbVbV",
"..bTbXbVbVbXbTbxaF#v#VaYbXbVbVbVbVbVbUbUbVbTbXbVbVbVbVbObUbXbVbVbLbLbLbLbMbVbVbTbVbWbLbVbWbVbXbV",
"#8bVbXbVbWbWbUbLbxbmbEbTbXbWbVbXbVbXbVbVbWbPbVbVbVbVbWbVbXbVbPbXbTbVbUbTbVbXbVbXbVbXbWbVbVbVbUbV"
};
